<?xml version="1.0" encoding="UTF-8" standalone="no"?>
<!-- Created with Inkscape (http://www.inkscape.org/) -->

<svg
   version="1.1"
   id="svg1"
   width="722.66669"
   height="344"
   viewBox="0 0 722.66669 344"
   sodipodi:docname="Logo.eps"
   xmlns:inkscape="http://www.inkscape.org/namespaces/inkscape"
   xmlns:sodipodi="http://sodipodi.sourceforge.net/DTD/sodipodi-0.dtd"
   xmlns="http://www.w3.org/2000/svg"
   xmlns:svg="http://www.w3.org/2000/svg">
  <defs
     id="defs1">
    <clipPath
       clipPathUnits="userSpaceOnUse"
       id="clipPath2">
      <path
         d="M 5.90234,3.77734 V 2574.03 H 5419.81 V 3.77734 Z"
         id="path2" />
    </clipPath>
    <clipPath
       clipPathUnits="userSpaceOnUse"
       id="clipPath4">
      <path
         d="M 5.90234,3.77734 V 2574.03 H 5419.81 V 3.77734 Z"
         id="path4" />
    </clipPath>
    <clipPath
       clipPathUnits="userSpaceOnUse"
       id="clipPath6">
      <path
         d="M 5.90234,3.77734 V 2574.03 H 5419.81 V 3.77734 Z"
         id="path6" />
    </clipPath>
    <clipPath
       clipPathUnits="userSpaceOnUse"
       id="clipPath8">
      <path
         d="M 5.90234,3.77734 V 2574.03 H 5419.81 V 3.77734 Z"
         id="path8" />
    </clipPath>
    <clipPath
       clipPathUnits="userSpaceOnUse"
       id="clipPath10">
      <path
         d="M 5.90234,3.77734 V 2574.03 H 5419.81 V 3.77734 Z"
         id="path10" />
    </clipPath>
    <clipPath
       clipPathUnits="userSpaceOnUse"
       id="clipPath12">
      <path
         d="M 5.90234,3.77734 V 2574.03 H 5419.81 V 3.77734 Z"
         id="path12" />
    </clipPath>
    <clipPath
       clipPathUnits="userSpaceOnUse"
       id="clipPath14">
      <path
         d="M 5.90234,3.77734 V 2574.03 H 5419.81 V 3.77734 Z"
         id="path14" />
    </clipPath>
    <clipPath
       clipPathUnits="userSpaceOnUse"
       id="clipPath16">
      <path
         d="M 5.90234,3.77734 V 2574.03 H 5419.81 V 3.77734 Z"
         id="path16" />
    </clipPath>
    <clipPath
       clipPathUnits="userSpaceOnUse"
       id="clipPath18">
      <path
         d="M 5.90234,3.77734 V 2574.03 H 5419.81 V 3.77734 Z"
         id="path18" />
    </clipPath>
    <clipPath
       clipPathUnits="userSpaceOnUse"
       id="clipPath20">
      <path
         d="M 5.90234,3.77734 V 2574.03 H 5419.81 V 3.77734 Z"
         id="path20" />
    </clipPath>
    <clipPath
       clipPathUnits="userSpaceOnUse"
       id="clipPath22">
      <path
         d="M 5.90234,3.77734 V 2574.03 H 5419.81 V 3.77734 Z"
         id="path22" />
    </clipPath>
    <clipPath
       clipPathUnits="userSpaceOnUse"
       id="clipPath24">
      <path
         d="M 5.90234,3.77734 V 2574.03 H 5419.81 V 3.77734 Z"
         id="path24" />
    </clipPath>
    <clipPath
       clipPathUnits="userSpaceOnUse"
       id="clipPath26">
      <path
         d="M 5.90234,3.77734 V 2574.03 H 5419.81 V 3.77734 Z"
         id="path26" />
    </clipPath>
    <clipPath
       clipPathUnits="userSpaceOnUse"
       id="clipPath28">
      <path
         d="M 5.90234,3.77734 V 2574.03 H 5419.81 V 3.77734 Z"
         id="path28" />
    </clipPath>
    <clipPath
       clipPathUnits="userSpaceOnUse"
       id="clipPath30">
      <path
         d="M 5.90234,3.77734 V 2574.03 H 5419.81 V 3.77734 Z"
         id="path30" />
    </clipPath>
    <clipPath
       clipPathUnits="userSpaceOnUse"
       id="clipPath32">
      <path
         d="M 5.90234,3.77734 V 2574.03 H 5419.81 V 3.77734 Z"
         id="path32" />
    </clipPath>
    <clipPath
       clipPathUnits="userSpaceOnUse"
       id="clipPath34">
      <path
         d="M 5.90234,3.77734 V 2574.03 H 5419.81 V 3.77734 Z"
         id="path34" />
    </clipPath>
    <clipPath
       clipPathUnits="userSpaceOnUse"
       id="clipPath36">
      <path
         d="M 5.90234,3.77734 V 2574.03 H 5419.81 V 3.77734 Z"
         id="path36" />
    </clipPath>
    <clipPath
       clipPathUnits="userSpaceOnUse"
       id="clipPath38">
      <path
         d="M 5.90234,3.77734 V 2574.03 H 5419.81 V 3.77734 Z"
         id="path38" />
    </clipPath>
    <clipPath
       clipPathUnits="userSpaceOnUse"
       id="clipPath40">
      <path
         d="M 5.90234,3.77734 V 2574.03 H 5419.81 V 3.77734 Z"
         id="path40" />
    </clipPath>
    <clipPath
       clipPathUnits="userSpaceOnUse"
       id="clipPath42">
      <path
         d="M 5.90234,3.77734 V 2574.03 H 5419.81 V 3.77734 Z"
         id="path42" />
    </clipPath>
    <clipPath
       clipPathUnits="userSpaceOnUse"
       id="clipPath44">
      <path
         d="M 5.90234,3.77734 V 2574.03 H 5419.81 V 3.77734 Z"
         id="path44" />
    </clipPath>
    <clipPath
       clipPathUnits="userSpaceOnUse"
       id="clipPath46">
      <path
         d="M 5.90234,3.77734 V 2574.03 H 5419.81 V 3.77734 Z"
         id="path46" />
    </clipPath>
    <clipPath
       clipPathUnits="userSpaceOnUse"
       id="clipPath48">
      <path
         d="M 5.90234,3.77734 V 2574.03 H 5419.81 V 3.77734 Z"
         id="path48" />
    </clipPath>
    <clipPath
       clipPathUnits="userSpaceOnUse"
       id="clipPath50">
      <path
         d="M 5.90234,3.77734 V 2574.03 H 5419.81 V 3.77734 Z"
         id="path50" />
    </clipPath>
    <clipPath
       clipPathUnits="userSpaceOnUse"
       id="clipPath52">
      <path
         d="M 5.90234,3.77734 V 2574.03 H 5419.81 V 3.77734 Z"
         id="path52" />
    </clipPath>
    <clipPath
       clipPathUnits="userSpaceOnUse"
       id="clipPath54">
      <path
         d="M 5.90234,3.77734 V 2574.03 H 5419.81 V 3.77734 Z"
         id="path54" />
    </clipPath>
    <clipPath
       clipPathUnits="userSpaceOnUse"
       id="clipPath56">
      <path
         d="M 5.90234,3.77734 V 2574.03 H 5419.81 V 3.77734 Z"
         id="path56" />
    </clipPath>
    <clipPath
       clipPathUnits="userSpaceOnUse"
       id="clipPath58">
      <path
         d="M 5.90234,3.77734 V 2574.03 H 5419.81 V 3.77734 Z"
         id="path58" />
    </clipPath>
    <clipPath
       clipPathUnits="userSpaceOnUse"
       id="clipPath60">
      <path
         d="M 5.90234,3.77734 V 2574.03 H 5419.81 V 3.77734 Z"
         id="path60" />
    </clipPath>
    <clipPath
       clipPathUnits="userSpaceOnUse"
       id="clipPath62">
      <path
         d="M 5.90234,3.77734 V 2574.03 H 5419.81 V 3.77734 Z"
         id="path62" />
    </clipPath>
    <clipPath
       clipPathUnits="userSpaceOnUse"
       id="clipPath64">
      <path
         d="M 5.90234,3.77734 V 2574.03 H 5419.81 V 3.77734 Z"
         id="path64" />
    </clipPath>
    <clipPath
       clipPathUnits="userSpaceOnUse"
       id="clipPath66">
      <path
         d="M 5.90234,3.77734 V 2574.03 H 5419.81 V 3.77734 Z"
         id="path66" />
    </clipPath>
    <clipPath
       clipPathUnits="userSpaceOnUse"
       id="clipPath68">
      <path
         d="M 5.90234,3.77734 V 2574.03 H 5419.81 V 3.77734 Z"
         id="path68" />
    </clipPath>
    <clipPath
       clipPathUnits="userSpaceOnUse"
       id="clipPath70">
      <path
         d="M 5.90234,3.77734 V 2574.03 H 5419.81 V 3.77734 Z"
         id="path70" />
    </clipPath>
    <clipPath
       clipPathUnits="userSpaceOnUse"
       id="clipPath72">
      <path
         d="M 5.90234,3.77734 V 2574.03 H 5419.81 V 3.77734 Z"
         id="path72" />
    </clipPath>
    <clipPath
       clipPathUnits="userSpaceOnUse"
       id="clipPath74">
      <path
         d="M 5.90234,3.77734 V 2574.03 H 5419.81 V 3.77734 Z"
         id="path74" />
    </clipPath>
    <clipPath
       clipPathUnits="userSpaceOnUse"
       id="clipPath76">
      <path
         d="M 5.90234,3.77734 V 2574.03 H 5419.81 V 3.77734 Z"
         id="path76" />
    </clipPath>
  </defs>
  <sodipodi:namedview
     id="namedview1"
     pagecolor="#ffffff"
     bordercolor="#000000"
     borderopacity="0.25"
     inkscape:showpageshadow="2"
     inkscape:pageopacity="0.0"
     inkscape:pagecheckerboard="0"
     inkscape:deskcolor="#d1d1d1">
    <inkscape:page
       x="0"
       y="0"
       inkscape:label="1"
       id="page1"
       width="722.66669"
       height="344"
       margin="0"
       bleed="0" />
  </sodipodi:namedview>
  <g
     id="g1"
     inkscape:groupmode="layer"
     inkscape:label="1">
    <path
       id="path1"
       d="M 5.90234,3.78125 H 5419.8123 V 2574.0313 H 5.90234 Z"
       style="fill:#ffffff;fill-opacity:1;fill-rule:evenodd;stroke:none"
       transform="matrix(0.13333333,0,0,-0.13333333,0,344)"
       clip-path="url(#clipPath2)" />
    <path
       id="path3"
       d="m 532.262,240.359 h 237.679 v 100.672 h -81.804 v -46.429 h -42.262 v 149.707 h 25.902 V 498.18 H 532.262 v -53.871 h 25.449 V 294.602 h -25.449 v -54.243"
       style="fill:#cdb058;fill-opacity:1;fill-rule:evenodd;stroke:none"
       transform="matrix(0.13333333,0,0,-0.13333333,0,344)"
       clip-path="url(#clipPath4)" />
    <path
       id="path5"
       d="m 1117.17,292.371 v 153.801 c -0.32,12.058 -2.24,24 -15,36.527 -14.29,12.473 -28.68,15.09 -45.89,15.481 H 954.93 c -11.25,-0.039 -23.282,-1.879 -34.192,-7.481 -4.508,-2.32 -8.398,-5.07 -11.707,-8.16 C 897.191,471 894.289,459.219 894.039,446.172 V 292.371 c 0.332,-12.101 2.18,-24.039 14.852,-36.539 14.398,-12.57 28.679,-15.051 46.039,-15.473 h 101.35 c 11.25,0.039 23.28,1.879 34.19,7.481 4.51,2.32 8.4,5.07 11.71,8.16 11.84,11.531 14.74,23.309 14.99,36.371 z m -133.6,2.231 v 149.707 h 44.08 V 294.602 h -44.08"
       style="fill:#cdb058;fill-opacity:1;fill-rule:evenodd;stroke:none"
       transform="matrix(0.13333333,0,0,-0.13333333,0,344)"
       clip-path="url(#clipPath6)" />
    <path
       id="path7"
       d="m 1306.26,240.359 h 159.97 v 156.403 h -108.62 v -53.133 h 26.82 v -49.027 h -51.81 v 149.707 h 51.81 v -22.661 h 77.71 v 76.532 h -155.88 c -6.67,0 -13.35,-0.7 -19.23,-2 -5.87,-1.289 -10.95,-3.18 -15.36,-5.481 -4.42,-2.289 -8.19,-5 -11.41,-8.078 -12.15,-12.262 -14.55,-24.242 -14.9,-38.312 V 294.602 c 0.38,-12.84 1.97,-25.352 15.05,-38.633 14.5,-12.867 28.46,-15.149 45.85,-15.61"
       style="fill:#cdb058;fill-opacity:1;fill-rule:evenodd;stroke:none"
       transform="matrix(0.13333333,0,0,-0.13333333,0,344)"
       clip-path="url(#clipPath8)" />
    <path
       id="path9"
       d="M 1732.57,498.18 H 1592.6 v -53.871 h 25.45 V 294.602 h -25.45 v -54.243 h 139.97 v 54.243 h -25.45 v 149.707 h 25.45 v 53.871"
       style="fill:#cdb058;fill-opacity:1;fill-rule:evenodd;stroke:none"
       transform="matrix(0.13333333,0,0,-0.13333333,0,344)"
       clip-path="url(#clipPath10)" />
    <path
       id="path11"
       d="m 1918.02,346.609 h 76.35 v -52.007 h -49.08 v 25.628 h -83.17 v -79.871 h 157.7 c 11.2,0.039 23.13,1.801 33.94,7.313 4.44,2.269 8.26,4.969 11.53,8.008 11.94,11.66 14.68,23.398 14.97,36.691 v 53.121 c -0.34,12.137 -2.18,24.09 -14.97,36.688 -14.21,12.402 -28.39,14.929 -45.47,15.32 h -74.53 v 46.809 h 49.08 v -22.661 h 75.44 v 76.532 h -151.79 c -6.53,0 -13.07,-0.68 -18.87,-1.95 -5.8,-1.269 -10.87,-3.128 -15.3,-5.39 -4.43,-2.27 -8.22,-4.949 -11.46,-7.981 -11.9,-11.699 -14.51,-23.359 -14.81,-36.687 v -47.551 c 0.34,-12.16 2.11,-24.121 14.81,-36.699 14.32,-12.5 28.39,-14.891 45.63,-15.313"
       style="fill:#cdb058;fill-opacity:1;fill-rule:evenodd;stroke:none"
       transform="matrix(0.13333333,0,0,-0.13333333,0,344)"
       clip-path="url(#clipPath12)" />
    <path
       id="path13"
       d="m 2415.68,294.602 h -24.54 v 149.707 h 29.99 V 401.59 h 64.53 v 96.59 h -278.58 v -96.59 h 64.54 v 42.719 h 29.99 V 294.602 h -24.54 v -54.243 h 138.61 v 54.243"
       style="fill:#cdb058;fill-opacity:1;fill-rule:evenodd;stroke:none"
       transform="matrix(0.13333333,0,0,-0.13333333,0,344)"
       clip-path="url(#clipPath14)" />
    <path
       id="path15"
       d="M 2748.37,498.18 H 2608.4 v -53.871 h 25.45 V 294.602 h -25.45 v -54.243 h 139.97 v 54.243 h -25.45 v 149.707 h 25.45 v 53.871"
       style="fill:#cdb058;fill-opacity:1;fill-rule:evenodd;stroke:none"
       transform="matrix(0.13333333,0,0,-0.13333333,0,344)"
       clip-path="url(#clipPath16)" />
    <path
       id="path17"
       d="m 2934.27,240.359 h 152.24 v 98.071 h -77.25 v -43.828 h -46.36 v 149.707 h 46.36 V 413.48 h 77.25 v 84.7 h -152.24 c -11.25,-0.039 -23.28,-1.879 -34.19,-7.481 -4.51,-2.32 -8.4,-5.07 -11.71,-8.16 -11.84,-11.539 -14.74,-23.32 -14.99,-36.367 V 292.371 c 0.32,-12.101 2.18,-24.039 14.85,-36.539 14.4,-12.57 28.67,-15.051 46.04,-15.473"
       style="fill:#cdb058;fill-opacity:1;fill-rule:evenodd;stroke:none"
       transform="matrix(0.13333333,0,0,-0.13333333,0,344)"
       clip-path="url(#clipPath18)" />
    <path
       id="path19"
       d="m 3275.6,346.609 h 76.35 v -52.007 h -49.08 v 25.628 h -83.17 v -79.871 h 157.7 c 11.2,0.039 23.14,1.801 33.94,7.313 4.44,2.269 8.26,4.969 11.53,8.008 11.94,11.66 14.68,23.398 14.97,36.691 v 53.121 c -0.34,12.137 -2.18,24.09 -14.97,36.688 -14.21,12.402 -28.39,14.929 -45.47,15.32 h -74.53 v 46.809 h 49.08 v -22.661 h 75.44 V 498.18 H 3275.6 c -6.53,0 -13.07,-0.68 -18.87,-1.95 -5.8,-1.269 -10.87,-3.128 -15.3,-5.39 -4.43,-2.27 -8.22,-4.949 -11.46,-7.981 -11.9,-11.699 -14.51,-23.359 -14.81,-36.687 v -47.551 c 0.34,-12.16 2.11,-24.121 14.81,-36.699 14.32,-12.5 28.4,-14.891 45.63,-15.313"
       style="fill:#cdb058;fill-opacity:1;fill-rule:evenodd;stroke:none"
       transform="matrix(0.13333333,0,0,-0.13333333,0,344)"
       clip-path="url(#clipPath20)" />
    <path
       id="path21"
       d="m 3930.08,498.18 h -139.97 v -53.871 h 25.45 V 294.602 h -25.45 v -54.243 h 139.97 v 54.243 h -25.45 v 149.707 h 25.45 v 53.871"
       style="fill:#cdb058;fill-opacity:1;fill-rule:evenodd;stroke:none"
       transform="matrix(0.13333333,0,0,-0.13333333,0,344)"
       clip-path="url(#clipPath22)" />
    <path
       id="path23"
       d="M 4354.57,498.18 H 4246.41 V 368.898 L 4160.52,498.18 H 4051.9 v -53.871 h 25.45 V 294.602 h -25.45 v -54.243 h 108.62 v 129.282 l 85.89,-129.282 h 83.16 v 203.95 h 25 v 53.871"
       style="fill:#cdb058;fill-opacity:1;fill-rule:evenodd;stroke:none"
       transform="matrix(0.13333333,0,0,-0.13333333,0,344)"
       clip-path="url(#clipPath24)" />
    <path
       id="path25"
       d="m 4537.75,240.359 h 152.24 v 98.071 h -77.26 v -43.828 h -46.35 v 149.707 h 46.35 V 413.48 h 77.26 v 84.7 h -152.24 c -11.26,-0.039 -23.29,-1.879 -34.19,-7.481 -4.52,-2.32 -8.41,-5.07 -11.72,-8.16 C 4480,471 4477.11,459.219 4476.85,446.172 V 292.371 c 0.33,-12.101 2.18,-24.039 14.85,-36.539 14.4,-12.57 28.68,-15.051 46.05,-15.473"
       style="fill:#cdb058;fill-opacity:1;fill-rule:evenodd;stroke:none"
       transform="matrix(0.13333333,0,0,-0.13333333,0,344)"
       clip-path="url(#clipPath26)" />
    <path
       id="path27"
       d="m 4833.17,264.48 c -1.65,-10.789 13.33,-25.359 24.25,-26.398 11.89,-1.383 24.82,-4.91 40.62,13.617 5.72,10.153 6.14,20.539 -5.22,31.813 -14.35,11.097 -31.59,14.449 -50.73,-0.024 -6.45,-5.918 -8.9,-12.636 -8.92,-19.008"
       style="fill:#cdb058;fill-opacity:1;fill-rule:evenodd;stroke:none"
       transform="matrix(0.13333333,0,0,-0.13333333,0,344)"
       clip-path="url(#clipPath28)" />
    <path
       id="path29"
       d="m 2487.4,1174.13 c 11.49,35.46 21.75,70.63 34.47,106.4 12.29,18.52 30.07,20.75 46.79,9.02 l 65.36,-55.85 c 23.35,25.69 52.35,41.35 77.05,47.75 6.78,1.81 13.73,3.13 20.74,3.8 7.02,0.66 14.09,0.67 19.42,0.4 11.97,-0.81 15.81,-1.87 24.04,-4.11 7.7,-2.22 19.12,-6.86 28.92,-14.05 13.08,-9 25.08,-25.57 30.16,-39.2 6.51,-16.88 8,-27.44 9.9,-41.81 0.54,-4.3 1.03,-8.6 1.42,-18.56 0.39,-9.95 0.7,-25.56 -0.21,-41.1 -0.9,-15.54 -3.01,-31.02 -5.02,-42.63 -3.93,-22.22 -7.67,-33.86 -12.39,-50.06 20.11,57.09 40.44,114.43 88.36,172.34 36.16,42.11 72.37,58.6 110.11,59.06 h 97.24 c 14.98,0.31 36.78,-3.98 51.79,-14.09 10.21,-5.98 23.12,-20.56 28.46,-33.91 4.48,-10.58 5.61,-15.7 7.51,-25.34 3.92,-19.66 2.23,-52.4 -3.48,-79.33 -13.43,-58.55 -23.21,-116.88 -54.68,-175.95 -10.09,-18.398 -30.36,-39.601 -49.43,-48.441 -15.99,-8.199 -36.45,-13.129 -56.57,-13 h -77.09 c -7.82,-26.989 -17.84,-54.231 -23.47,-80.969 -0.63,-3.27 -1.04,-6.578 -1.38,-9.879 24.24,-0.699 48.01,2.027 72.6,11.16 6.77,2.528 13.36,5.489 18.35,7.918 11.11,5.551 14.84,8.012 22.51,12.84 20.37,13.012 46.05,33.953 66.46,56.16 4.18,4.5 8.26,9.102 13.16,15.281 4.9,6.192 10.62,13.961 15.81,22.059 5.19,8.109 9.86,16.551 13.07,22.742 3.21,6.18 4.97,10.098 6.61,14.078 1.64,3.973 3.16,7.981 4.1,10.43 2.14,5.68 2.58,6.082 4.63,9.063 14.4,15.937 33.1,17.41 48.05,-2.891 9.25,-20.109 18.75,-40.621 27.08,-60.672 1.28,-4.488 1.26,-8.617 0.79,-13.18 -0.19,-1.57 -0.49,-3.129 -2.09,-8.097 -3.3,-10.383 -10.75,-30.332 -18.73,-45.832 -20.82,-42.41 -56.2,-85.071 -102.59,-124.801 -26.55,-22.617 -52.94,-41.231 -79.51,-54.481 -30.52,-15.058 -54.2,-21.91 -81.12,-22.148 -29.1,0.109 -58.18,-0.398 -87.3,0.352 -8.83,0.488 -19.06,1.679 -29.84,4.148 -21.28,5.551 -37.79,11.48 -57.07,31.531 -5.65,6.239 -9.95,12.52 -13.66,19.02 -12.41,-9.281 -24.78,-17.5 -37.27,-24.59 -5.36,-3.082 -10.79,-6.039 -19.51,-9.91 -8.73,-3.871 -20.75,-8.653 -33.13,-12.141 -12.38,-3.488 -25.13,-5.699 -32.51,-6.84 -14.68,-2.121 -12.24,-1.25 -17.89,-1.57 -6.12,-0.121 -15.1,0.781 -22.4,3.699 -12.32,5.43 -28.17,13.09 -44.94,34.039 -13.58,18.071 -18.35,35.723 -20.89,54.903 -7.9,-25.5 -15.04,-50.75 -23.7,-76.512 -3.09,-8.168 -16.33,-16.938 -25.87,-16.129 -49.15,0.109 -98.23,-0.391 -147.45,0.352 -7.28,0.687 -19.34,7.73 -22.85,19.347 -5.97,-2.777 -12.06,-5.32 -18.25,-7.578 -14.88,-5.391 -27.17,-8.57 -38.33,-10.402 -26.67,-3.578 -51.97,-4.949 -78.35,22.312 -8.73,9.539 -15.23,20.668 -19.88,31.578 -5.28,-3.968 -10.65,-7.808 -16.1,-11.539 -5.46,-3.73 -10.98,-7.351 -18.82,-11.84 -7.84,-4.5 -17.99,-9.859 -28.54,-14.281 -10.55,-4.418 -21.49,-7.89 -29.7,-10.219 -8.2,-2.32 -13.67,-3.5 -19.17,-4.492 -5.5,-0.988 -11.04,-1.797 -14.83,-2.269 -11.39,-1.231 -14.28,-1.199 -22.46,-0.61 -12.46,1.411 -18.61,4.411 -29.13,9.762 -10.72,6.27 -17.48,11.981 -27.94,24.899 -14.51,18.468 -21.15,40.519 -22.94,59.992 -8.15,-26.293 -15.54,-52.332 -24.44,-78.883 -3.09,-8.18 -16.32,-16.938 -25.86,-16.129 -48.82,0.109 -97.56,-0.398 -146.44,0.352 -8.76,0.468 -21.1,11.027 -22.9,19.66 -17.57,-6.793 -35.6,-12.43 -53.35,-15.871 -5.98,-1.18 -11.99,-2.211 -20.64,-3.012 -8.66,-0.797 -19.95,-1.379 -31.2,-0.918 -11.25,0.469 -22.45,1.98 -29.84,3.16 -15.83,2.731 -17.36,3.629 -26.14,6.09 -17.45,5.809 -36.83,12.187 -58.25,33.66 -12.44,12.711 -21.34,31.399 -25.45,44.738 -2.14,6.641 -3.81,13.332 -5.19,20.039 -31.92,-31.519 -65.76,-58.437 -98.85,-77.437 -5.36,-3.082 -10.79,-6.039 -19.51,-9.91 -8.73,-3.871 -20.75,-8.653 -33.13,-12.141 -12.39,-3.488 -25.13,-5.699 -32.51,-6.84 -14.68,-2.121 -12.24,-1.25 -17.89,-1.57 -6.12,-0.121 -15.1,0.781 -22.4,3.699 -12.32,5.43 -28.18,13.09 -44.94,34.039 -13.58,18.071 -18.35,35.723 -20.89,54.903 -7.9,-25.5 -15.04,-50.75 -23.7,-76.512 -3.09,-8.168 -16.33,-16.938 -25.87,-16.129 -49.07,0.102 -98.08,-0.352 -147.201,0.309 -7.23,0.613 -18.707,7.453 -22.398,17.531 -5.313,-2.32 -10.7,-4.461 -16.172,-6.391 -30.508,-10.039 -49.438,-14.418 -76.18,-9.679 -9.367,2.32 -22.051,6.57 -33.848,21.519 -26.382,-19.719 -54.652,-24.73 -78.562,-23.019 -17.481,0.699 -45.738,6.66 -64.559,17.652 -10.91,5.629 -26.367,18.828 -33.382,30.148 -11.52,17.879 -14.493,29.149 -18.258,44.512 -3.977,18.227 -5.133,35.879 -4.758,53.68 -3.082,-5.59 -6.277,-11.114 -9.539,-16.614 -3.262,-5.488 -6.582,-10.949 -13.91,-21.097 -7.332,-10.153 -18.664,-24.981 -31.282,-38.621 -12.617,-13.649 -26.519,-26.11 -36.839,-34.731 -10.317,-8.609 -17.051,-13.39 -23.868,-18.051 -6.812,-4.668 -13.707,-9.218 -23.921,-14.82 -10.211,-5.609 -23.747,-12.269 -37.825,-17.457 -14.082,-5.18 -28.707,-8.883 -39.449,-11.152 -20.269,-4.188 -30.402,-4.43 -44.934,-5.008 -18.937,-0.371 -38.21,1.66 -57.062,6.75 -22.863,6.359 -51.969,18.07 -79.289,46.848 -19.074,20.671 -31.453,42.992 -39.43,67.82 -17.008,56.383 -12.679,112.41 -0.027,167.082 2.074,8.809 4.437,17.559 8.348,29.93 9.757,30.82 25.589,73.937 44.07,110.619 12.433,24.97 26.754,50.02 46.144,75.11 19.391,25.59 51.098,57.94 81.645,82.4 9.164,7.39 18.601,14.44 25.172,19.15 13.449,9.52 17.246,11.49 25.746,16.11 8.758,4.55 18.742,8.58 28.351,11.44 -5.753,63.69 -4.777,128.29 23.207,192.73 8.145,25.19 18.184,50.23 29.844,75.27 l -36.152,43.84 c -10.594,12.48 -21.305,23.47 -32.629,29.7 -25.574,-5.61 -52.977,-27.45 -77.723,-39.69 -14.886,-4.55 -33.675,-3.44 -47.484,20.25 -2.625,4.88 -4.356,10.46 -5.578,16.29 -1.461,6.83 -1.977,16.06 -1.524,26.02 0.758,13.8 3.438,25.47 7.727,34.72 2.832,6.16 7.375,13.69 13.789,20.3 6.813,7.21 17.281,14.18 28.66,21.04 6.606,3.92 13.414,7.5 20.367,10.78 15.164,7.24 32.793,13.21 51.817,16.79 10.34,1.9 20.847,2.87 29.113,3.21 15.863,0.62 25.688,-0.88 38.074,-3.47 17.547,-3.94 40.68,-12.99 63.184,-30.76 12.926,-12.44 25.875,-24.78 38.855,-37.03 14.563,15.98 29.41,27.74 44.633,37.39 25.945,16.77 61.527,28.68 93.848,32.31 8.5,0.98 17.051,1.44 23.347,1.62 11.102,0.29 17.5,-0.28 25.891,-1.09 15.82,-2.01 27.102,-4.4 42.961,-12.31 9.719,-4.64 23.391,-16.04 29.641,-25.8 15.058,-21.11 20.757,-52.67 20.64,-77.69 -0.492,-24.71 -7.179,-51.97 -14.832,-74.08 -13.648,-34.95 -25.609,-72.79 -72.347,-113.25 -17.301,-14.07 -36.25,-23.22 -55.512,-28.28 -23.25,-6.05 -44.899,-6.42 -64.051,1.57 -3.074,-8.27 -6.18,-19.8 -7.375,-29.77 -4.875,-26.59 12.328,-60.61 24.535,-91.16 7,-4.23 15.91,-6.26 25.903,-5.6 11.269,1.17 22.027,10.94 33.207,7.14 6.562,-1.03 16.132,-7.87 19.261,-14.97 4.25,2.18 8.711,3.18 13.168,3.19 44.082,-0.11 88.102,0.37 132.242,-0.33 5.032,-0.83 10.168,-2.68 15.442,-7.54 4.418,14.16 8.137,28.09 13.269,42.48 3.75,9.74 18.719,18.11 29.059,16.13 5.191,-0.62 10.512,-2.35 15.95,-7.05 l 106.77,-94.3 c 5.12,-5.14 8.31,-10.56 10.52,-16.05 l 6.58,-0.06 c 10.77,33.81 20.91,67.39 32.29,101.43 3.76,9.72 18.53,18.01 28.75,16.18 5.18,-0.56 10.49,-2.23 15.91,-6.77 l 65.37,-55.85 c 23.35,25.69 52.35,41.35 77.05,47.75 6.77,1.81 13.73,3.13 20.74,3.8 7.02,0.66 14.09,0.67 19.42,0.4 11.97,-0.81 15.81,-1.87 24.04,-4.11 7.7,-2.22 19.12,-6.86 28.92,-14.05 13.08,-9 25.08,-25.57 30.16,-39.2 6.51,-16.88 8,-27.44 9.9,-41.81 0.54,-4.3 1.03,-8.6 1.42,-18.56 0.4,-9.95 0.71,-25.56 -0.21,-41.1 -0.92,-15.54 -3.08,-31 -5.3,-44.11 -4.35,-25.42 -9.13,-44.55 -15.68,-66.31 l -51.93,-168.15 c 77.64,81.898 133.56,163.2 178.69,245.61 8.61,15.43 17.14,30.88 25.59,46.34 -4.58,73.53 11.93,146.66 51.18,221.42 12.1,22.74 41.03,50.07 67.91,57.38 13.18,4.06 24.18,4.98 33.41,4.43 10.24,-0.31 28.51,-4.8 40.37,-14.97 12.22,-10.24 16.78,-19.65 20.88,-30.42 2.77,-7.48 4.77,-17.48 5.46,-28.31 0.35,-6.04 0.12,-12.11 -0.2,-16.36 -0.65,-8.06 -1.54,-11.1 -2.49,-16.33 -9.34,-47.94 -34.53,-96.06 -58.38,-143.84 28.39,-60.05 53.03,-120.55 60.97,-181.438 70.03,229.168 139.3,458.088 210.09,687.518 3.09,8.17 16.32,16.94 25.86,16.13 48.79,-0.12 97.51,0.39 146.37,-0.35 7.28,-0.69 19.31,-7.72 22.82,-19.26 1.9,-5.74 2.05,-11.63 0.24,-17.65 l -115.2,-374.77 c 16.95,4.51 39.73,2.33 57.48,-5.34 12.75,-5.55 25.19,-12.53 37.93,-28.65 9.56,-12.21 15.05,-27.03 18.34,-41.3 6.25,-27.31 6.63,-62.03 3.83,-93.19 -3.34,-33.49 -10.32,-65.92 -20.01,-98.35 l -52.49,-173.019 c 8.3,5.278 16.92,12.789 25.06,20.981 42.53,138.568 84.36,276.898 127.6,415.698 3.76,9.72 18.76,18.09 29.13,16.07 5.19,-0.64 10.5,-2.38 15.94,-7.11 40.24,-32.81 81.05,-67.76 118.72,-105.9 1.99,-3.01 3.19,-6.07 3.88,-9.14 z M 493.395,1040.44 c -24.196,-16.32 -53.54,-45.721 -67.961,-71.331 -24.485,-42.519 -41.918,-87.55 -48.051,-131.25 -0.606,-23.488 -1.387,-40.988 10.836,-64.597 8.73,-12.543 12.289,-5.461 19.59,-4.512 12.187,4.621 22.82,11.621 36.004,25.191 10.136,10.661 17.582,21.399 24.011,32.739 5.43,9.371 11.387,22.41 16.617,36.851 15.422,46.11 19.778,93.539 12.727,140.439 z m 263.785,486.57 c -3.289,-2.54 -6.559,-5.38 -9.821,-8.67 3.86,0.79 7.95,4.55 9.821,8.67 z m 885.01,-581.791 c -12.55,-21.598 -25.05,-43.199 -37.52,-64.821 -2.64,-16.289 -4.15,-32.597 -3.65,-48.929 5.68,3.82 10.98,10.922 13.47,15.211 17.73,31.441 24.76,65.332 27.7,98.539"
       style="fill:#cdb058;fill-opacity:1;fill-rule:evenodd;stroke:none"
       transform="matrix(0.13333333,0,0,-0.13333333,0,344)"
       clip-path="url(#clipPath30)" />
    <path
       id="path31"
       d="m 2561.65,1379.04 c -6.28,-9.12 -16.48,-20.06 -25.41,-27.48 -7.04,-6.05 -16.35,-12.7 -26.96,-18.45 -6.15,-3.28 -12.59,-6.01 -17.4,-7.84 -13.3,-4.86 -20.45,-6.12 -30.86,-7.2 -22.39,-1.26 -43.83,1.19 -69.11,22.42 -15.62,15.27 -19,24.47 -23.38,41.49 -3.7,17.41 -3.62,33.25 1.14,51.23 7.72,25.89 18.41,54.2 50.52,80.11 17.24,15.48 35.3,25.18 54.06,30.87 29.1,7.71 57.9,7.79 89.72,-18.75 20.88,-18.94 24.66,-44.26 25.6,-61.62 1.37,-22.34 -8.05,-51.59 -21.2,-74.23 -2.07,-3.59 -4.29,-7.09 -6.72,-10.55"
       style="fill:#cdb058;fill-opacity:1;fill-rule:evenodd;stroke:none"
       transform="matrix(0.13333333,0,0,-0.13333333,0,344)"
       clip-path="url(#clipPath32)" />
    <path
       id="path33"
       d="m 4796.07,951.57 49.64,165 c -13.09,0.17 -26.11,-0.32 -39.28,0.52 -7.21,0.76 -19.11,7.76 -22.6,19.31 -1.87,5.71 -2.01,11.56 -0.2,17.56 8.33,26.68 15.89,53.11 24.98,80.05 3.1,8.15 16.45,16.96 26.08,16.06 l 50.51,-0.25 c 43.07,143.12 85.39,285.98 129.22,429.35 3.08,8.24 16.35,17.05 25.92,16.24 48.69,-0.12 97.31,0.38 146.07,-0.35 7.28,-0.68 19.27,-7.7 22.8,-19.14 1.92,-5.72 2.1,-11.58 0.33,-17.59 l -122.38,-407.88 c 23.05,-0.25 46.03,0.11 69.14,-0.75 7.24,-0.74 19.19,-7.75 22.69,-19.29 1.88,-5.73 2.03,-11.59 0.22,-17.6 -8.33,-26.68 -15.9,-53.11 -24.99,-80.04 -3.09,-8.15 -16.39,-16.94 -25.99,-16.07 l -81.57,0.46 -80.78,-271.461 c 12.98,9.949 25.57,23.66 35.55,36.11 20.17,24.91 34.95,52.992 45.44,81.773 13.68,18.918 34.12,21.078 49.88,-0.121 9.53,-20.57 19.32,-41.52 27.98,-62.012 1.17,-4.051 1.42,-8.238 0.79,-12.398 -0.19,-1.379 -0.46,-2.75 -2.03,-7.59 -3.05,-9.629 -10.49,-29.652 -18.44,-44.891 -3.78,-7.441 -7.66,-14.351 -11.76,-21.121 -12.67,-21.008 -25.6,-38.199 -41.06,-55.32 -40.94,-45.02 -86.73,-82.137 -131.19,-103.93 -18.14,-8.898 -36.71,-15.008 -54.98,-18.73 -27.75,-4.887 -42.67,-5.149 -64.81,3.152 -3.74,1.551 -7.35,3.418 -10.77,5.59 -5.67,3.641 -10.6,7.668 -14.73,11.961 -6.87,6.91 -13.63,16.648 -18.21,26.437 -20.4,-12.769 -41.37,-23.168 -62.58,-31.218 -10.92,-4.141 -22.05,-7.7 -30.59,-10.129 -8.55,-2.422 -14.51,-3.703 -20.49,-4.871 -5.99,-1.161 -12,-2.2 -20.65,-3.012 -8.65,-0.809 -19.95,-1.379 -31.2,-0.918 -11.24,0.469 -22.45,1.98 -29.84,3.16 -15.84,2.731 -17.35,3.641 -26.13,6.09 -4.47,1.371 -9.83,3.187 -15.07,5.328 -15.1,6.359 -25.96,12.691 -37.01,22.352 -13.44,10.89 -27.22,34.859 -31.63,50.718 -2.13,6.641 -3.81,13.332 -5.18,20.039 -36.08,-36.949 -72.71,-58.918 -109.25,-82.316 -10.33,-2.273 -20.07,-9.051 -30.44,-12.41 -7,-2.621 -14.12,-4.883 -19.28,-6.391 -13.05,-3.691 -20.26,-4.902 -30.02,-6.109 -14.93,-1.723 -31.61,-1.07 -45.54,6.078 -6.62,3.43 -13,7.762 -19.75,16.332 -26.32,-19.633 -54.61,-24.523 -78.55,-22.793 -17.42,0.723 -45.58,6.699 -64.32,17.762 -10.83,5.629 -26.18,18.859 -33.14,30.211 -11.38,17.867 -14.3,29.129 -18.01,44.488 -5.24,25.43 -5.68,46.75 -3.68,71.648 -9.93,-23.109 -20.47,-46.089 -34.95,-69.597 -7.67,-12.34 -15.63,-23.969 -24.07,-34.531 -11.24,-14.258 -25.67,-28.821 -38.66,-38.032 -17.84,-13.199 -42.31,-22.629 -64.6,-22.238 h -110.92 c -21.12,0.539 -47.35,5.52 -68.18,35.852 -3.39,5.296 -5.48,9.839 -7.52,14.808 -42.15,-30.019 -84.63,-50.461 -127.6,-50.66 -29.51,0.129 -58.99,-0.441 -88.53,0.391 -13.89,0.839 -25.56,2.668 -35.98,5.371 -17.48,4.976 -36.67,10.519 -58.26,33.129 -9.61,10.347 -17.38,24.191 -21.99,35.629 -6.29,15.039 -10.94,35.441 -12.65,54.05 -3.48,28.352 0.78,68.571 9.34,103.211 5.05,22.231 10.58,44.508 17.33,66.707 54.43,178.602 108.3,357.022 163.3,535.802 15.49,45.38 31.75,91.71 65.17,137.91 5.05,6.83 12.34,15.5 21.12,24.63 9.01,9.3 17.94,17.24 26.1,23.52 26.9,21.3 63.63,36.73 97.18,36.17 43.53,-0.11 87.04,0.37 130.59,-0.33 14.39,-1.58 40.02,-4.37 60.49,-30.43 12.15,-16.64 16.36,-34.89 18.56,-54.26 2.86,-24.79 0.25,-48.31 -5.04,-72.69 -1.79,-4.54 -6.62,-10.67 -12.31,-13.7 -50.69,-28.44 -101.6,-57.66 -152.06,-85.32 -11.38,-4.42 -27.95,-1.68 -36.22,14.43 -3.17,6.72 -3.7,13.75 -1.6,20.87 l 21.98,72.18 c -3.63,-0.19 -8.18,-2.44 -8.96,-7.12 -74.44,-243.94 -149.62,-487.93 -223.32,-731.81 -1.39,-5.988 -2.95,-11.988 -4.24,-17.969 32.6,1.379 60.25,6.988 92.75,20.52 22.2,9.488 49.87,27.531 72.3,50.187 17.85,65.91 39.58,131.231 60.33,197.142 6.75,19.3 14.57,39.98 24,59.41 6.13,12.75 12.85,25.21 18.03,34.31 9.81,17.14 15.61,25.33 24.02,37.29 13.82,19.59 35.63,44.45 54.31,57.41 35.15,25.59 63.82,25.24 96.46,24.64 12.9,15.05 32.83,28.99 48.28,35.06 29.18,11.21 61.89,14.62 96.91,-9.49 15.06,-11.81 21.79,-25.39 26.3,-39.63 1.52,-4.86 2.77,-10.53 3.81,-16.63 1.33,-7.38 2.33,-19.69 2.19,-33 -0.12,-7.7 -0.76,-15.39 -1.44,-21.31 -1.89,-15.15 -4.32,-24.38 -7.44,-36.44 8.28,5.07 16.73,8.22 24.74,19.31 14.11,20.43 34.18,45.23 55.62,63.11 20.93,17.92 47.36,31.2 72.09,36.21 6.4,1.3 12.89,2.1 17.65,2.49 10.26,0.71 13.57,0.31 20.46,-0.32 16.37,-1.72 36.2,-8.43 53.78,-23.74 4.92,3 9.99,4.26 15.1,4.28 31.56,-0.12 63.06,0.38 94.69,-0.35 7.28,-0.69 19.29,-7.71 22.81,-19.2 1.91,-5.73 2.08,-11.6 0.29,-17.62 -37.01,-121.72 -73.8,-243.522 -110.87,-365.201 21.07,20.98 40.84,44.23 59.97,66.64 28.82,37.742 59.94,75.43 82.33,112.991 24.41,39.07 46.02,78.25 67.52,117.51 -4.58,73.53 11.93,146.66 51.19,221.42 12.1,22.74 41.02,50.07 67.9,57.38 13.19,4.06 24.18,4.98 33.41,4.43 10.25,-0.31 28.51,-4.8 40.38,-14.97 12.22,-10.24 16.77,-19.65 20.87,-30.42 2.78,-7.48 4.77,-17.48 5.47,-28.31 0.34,-6.04 0.11,-12.11 -0.21,-16.36 -0.65,-8.06 -1.53,-11.1 -2.49,-16.33 -9.34,-47.94 -34.53,-96.06 -58.38,-143.84 34.01,-73.77 65.7,-147.4 62.25,-221.63 z m -190.9,-6.351 c -12.54,-21.598 -25.05,-43.199 -37.52,-64.821 -2.64,-16.289 -4.14,-32.597 -3.65,-48.929 5.68,3.82 10.99,10.922 13.48,15.211 17.72,31.441 24.75,65.332 27.69,98.539"
       style="fill:#cdb058;fill-opacity:1;fill-rule:evenodd;stroke:none"
       transform="matrix(0.13333333,0,0,-0.13333333,0,344)"
       clip-path="url(#clipPath34)" />
    <path
       id="path35"
       d="m 524.797,907.238 c 2.687,16.442 4.539,32.66 4.695,47.942 0.156,15.281 -1.383,29.621 -3.683,51.84 -2.301,22.22 -5.371,52.33 -8.653,82.42 -19.531,-10.76 -38.168,-23.17 -54.457,-36 -16.289,-12.84 -30.226,-26.09 -43.152,-42.38 -12.926,-16.29 -24.84,-35.63 -35.328,-58.091 C 373.73,930.512 364.668,904.91 359.223,888 c -5.442,-16.91 -7.266,-25.141 -8.692,-33.48 -1.426,-8.34 -2.453,-16.801 -2.336,-28.809 0.121,-12.02 1.383,-27.602 4.817,-41.352 3.433,-13.75 9.035,-25.66 16.554,-34 7.52,-8.339 16.957,-13.109 29.473,-12.589 12.516,0.531 28.109,6.351 43.289,16.949 31.633,21.332 57.738,64.222 69.828,100.863 6.434,18.559 9.953,35.207 12.641,51.656 z m 262.332,651.112 c -2.559,4.6 -7.059,7.28 -15.469,6.21 -8.422,-1.08 -20.75,-5.91 -33.211,-15.6 -12.449,-9.68 -25.019,-24.23 -34.527,-40.37 8.547,-4.99 17.258,-9.71 23.828,-13.3 6.57,-3.59 10.988,-6.05 17.609,-6.07 6.621,-0.02 15.442,2.39 22.801,7.48 10.852,7.21 17.102,20.49 20.602,32.67 0.976,3.78 1.578,7.56 1.558,12.71 -0.011,5.15 -0.629,11.67 -3.191,16.27 z M 323.152,642.398 c -19.132,7.332 -36.222,18.332 -50.683,33.672 -14.461,15.34 -26.293,35.02 -33.438,57.801 -7.148,22.777 -9.613,48.649 -9.648,70.027 -0.035,21.391 2.359,38.282 5.426,56.102 3.07,17.82 6.808,36.57 19.855,74.031 13.043,37.469 35.391,93.649 66.602,139.189 31.214,45.54 71.289,80.44 97.863,101.05 26.574,20.62 39.644,26.95 51.273,31.3 11.629,4.35 21.817,6.71 32.161,7.53 -1.86,16.01 -3.254,32.09 -4.215,47.09 -0.965,15.01 -1.496,28.95 -0.813,46.15 1.18,33.02 7.207,75.61 23.863,112.32 8.75,27.74 21.52,58.01 36.672,89.93 -15.89,19.27 -31.781,38.54 -47.675,57.81 -9.106,11.06 -19.508,21.15 -28.536,28.41 -9.031,7.26 -16.687,11.69 -26.097,11.78 -9.414,0.09 -20.582,-4.16 -33.098,-10.15 -12.516,-6 -26.383,-13.74 -36.164,-20.04 -9.781,-6.29 -15.48,-11.14 -20.449,-11.58 -4.969,-0.44 -9.207,3.53 -11.59,10.07 -2.383,6.55 -2.906,15.67 -2.461,24.32 0.445,8.66 1.855,16.86 5.047,23.97 3.187,7.1 8.152,13.13 14.246,17.62 16.5,12.13 34.828,21.82 53.293,28.21 18.465,6.39 37.066,9.48 53.094,9.78 16.027,0.3 29.48,-2.21 42.531,-6.92 13.047,-4.72 25.691,-11.65 36.949,-20.36 20.195,-19.45 40.508,-38.72 60.938,-57.81 17.777,26.9 42.5,49.31 71.211,63.79 28.711,14.49 61.402,21.05 89.961,21.32 28.57,0.27 52.992,-5.75 67.39,-20.94 14.391,-15.2 18.762,-39.58 19.961,-56.42 1.199,-16.83 -0.769,-26.12 -2.699,-36.16 -1.934,-10.03 -3.82,-20.81 -9.922,-38.51 -6.102,-17.7 -16.41,-42.32 -29.691,-62.8 -13.278,-20.48 -29.539,-36.82 -46.727,-47.43 -17.191,-10.61 -35.332,-15.48 -48.891,-16.83 -13.55,-1.34 -22.531,0.84 -30.683,4.38 -8.149,3.55 -15.465,8.45 -21.578,14.56 -7.301,-13.41 -13.278,-27.57 -17.344,-40.79 -14.816,-45.36 -3.246,-79.55 13.891,-117.11 3.23,-7.76 6.429,-15.67 9.628,-23.57 11.325,-9.8 28.606,-15.81 44.094,-16.04 12.512,-0.3 21.821,2.5 32.223,8.01 l -24.184,-78.69 c -12.379,-12.19 -27.218,-16.38 -43.226,-17.67 2.773,-10.41 4.812,-21.02 6.218,-32.04 1.411,-11.02 2.192,-22.44 1.262,-38.7 -0.926,-16.25 -3.558,-37.35 -8.519,-61.78 -8.559,-41.389 -24.418,-89.96 -37.551,-135.671 -10.727,-36.039 -26.957,-70.5 -47.438,-100.55 -20.484,-30.047 -45.218,-55.68 -69.937,-75.45 -24.715,-19.757 -49.41,-33.64 -74.563,-42.808 -25.148,-9.172 -50.754,-13.629 -74.144,-14.02 -23.387,-0.39 -44.559,3.278 -63.688,10.617"
       style="fill:#000000;fill-opacity:1;fill-rule:evenodd;stroke:none"
       transform="matrix(0.13333333,0,0,-0.13333333,0,344)"
       clip-path="url(#clipPath36)" />
    <path
       id="path37"
       d="m 1159.87,895.02 -25.31,54.121 c -13.56,-37.231 -36.5,-75.75 -75.6,-113.082 -8.51,-7.84 -16.73,-13.918 -25.07,-19.039 -5.29,-3.141 -10.45,-6.571 -15.4,-7.61 -6.75,-2.789 -18.47,0.801 -19.15,8.59 -2.942,10.082 -0.52,22.77 3.16,35.289 l 96.68,313.941 -114.539,100.34 C 936.949,1110.94 889.648,954.711 841.578,797.691 c -2.25,-6.902 -6.527,-18.211 -10.789,-24.429 -3.879,-6.891 -22.301,-27.543 -30.668,-11.41 -3.672,10.109 -2.293,15.976 -1.562,26.91 1.171,10.707 3.589,22.207 7.05,33.629 L 925.641,1216.66 H 797.738 c -33.527,-111 -68.597,-222.398 -100.582,-333.012 -3.597,-13.66 -6.918,-27.386 -8.906,-35.796 -3.66,-15.532 -3.684,-16.481 -5.164,-23.821 -1.668,-8.89 -2.258,-12.172 -3.211,-19.73 -1.535,-11.071 -2.754,-31.871 -1.266,-47.75 0.989,-11.059 2.301,-21.051 6.297,-34.219 3.16,-9.723 5.508,-15.16 11.024,-23.672 5.429,-8.14 12.73,-14.488 18.961,-18.469 7.879,-5.769 28.808,-13.421 40.039,-14.902 11.879,-2.359 30.769,-2.957 40.531,-0.82 5.59,0.929 15.07,3.742 22.629,7.871 9.91,4.781 31.281,20.691 43.039,37.121 -0.149,-5.922 0.562,-12.031 2.34,-17.992 3.441,-10.938 8.98,-21.809 21.91,-26.328 12.93,-4.039 26.762,-1.922 40.922,1.07 16.219,3.219 49.648,15.809 74.159,32.469 28.94,18.859 55.88,41.511 84.74,71.941 38.49,41.008 62.67,82.84 74.67,124.399"
       style="fill:#000000;fill-opacity:1;fill-rule:evenodd;stroke:none"
       transform="matrix(0.13333333,0,0,-0.13333333,0,344)"
       clip-path="url(#clipPath38)" />
    <path
       id="path39"
       d="m 1504.69,812.121 c -19.72,-26.672 -45.38,-58.141 -74.89,-80 -36.3,-30.992 -69.18,-52.441 -108.19,-62.609 -19.43,-4.114 -35.94,-11.051 -55.5,-2.782 -10.94,5.739 -23.85,13.872 -33.45,30.649 -6.79,12.332 -8.91,23.801 -10.28,35.34 -2.18,15.14 -0.05,43.051 6.19,65.293 31.99,108.148 66.01,215.938 98.1,323.878 1.24,8.27 5.4,18.54 -5.3,27.05 -9.31,3.18 -20.39,0.5 -30.43,-13.35 -4.1,-6.45 -6.28,-12.79 -8.34,-19.42 l -138.11,-453.1 h -142.97 l 184.29,604.62 88.68,-75.77 c 7.22,11.85 16.4,23.75 29.84,35.07 5.92,4.93 12.29,9.3 16.74,12.15 8.36,5.28 11.62,6.44 17.12,8.93 5.72,2.42 13.12,4.89 19.44,6.41 9.89,2.19 20.82,3.45 33,1.97 16.9,-2.81 29.41,-5.84 44.7,-24.21 7.06,-9.35 10.69,-20.28 13.14,-30.8 1.3,-5.56 2.4,-12.49 3.24,-20 3.25,-30.62 0.98,-73.84 -7.32,-111.04 -3.07,-15.21 -6.94,-30.38 -11.56,-45.49 -18.67,-60.961 -38.21,-121.988 -56,-182.879 -1.69,-10.82 -7.78,-24.371 5.49,-35.722 11.48,-3.079 21.93,2.589 35.51,9.793 75.51,79.359 134.75,157.679 179.27,237.138 15.66,27.1 30.57,54.27 45.39,81.46 -7.31,70.45 9.44,141.12 46.2,212.31 11.65,21.99 39.79,46.69 67.85,47.67 12.81,0.43 26.43,-0.89 37.65,-15.87 6.26,-9.95 8,-18.77 8.95,-30.57 0.38,-7.71 -0.16,-15.2 -1.04,-19.54 -8.79,-51.8 -37.83,-103.7 -63.49,-155.34 29.5,-59.28 54.13,-119.15 63.81,-178.801 1.37,-10.317 2.13,-20.079 2.21,-27.957 0.2,-7.141 -0.45,-20.102 -2.35,-33.973 -7.9,-53.207 -36.17,-113.488 -89.46,-169.047 40.23,1.797 80.74,28.75 121.94,73.387 8.74,9.351 16.65,19.051 23.95,29.043 3.94,5.297 7.76,10.699 13.15,19.41 11.81,18.82 26.34,46.808 34.79,71.457 l 23.08,-66.5 c -10.51,-25.328 -24.08,-50.988 -41.49,-76.238 -15.82,-22.911 -39.45,-51.993 -75,-80.762 -58.3,-45.77 -117.04,-69.899 -177.02,-70.27 -31.07,1.09 -58.16,4.852 -87.74,23.379 -7.78,5.434 -12.85,10.344 -16.79,15.41 -11.11,13.762 -17.31,33.793 -20.24,51.161 -3.07,19.621 -5.1,39.382 -6.76,59.062 z m 159.01,83.66 c 9.03,46.5 15.5,92.957 -1.8,139.959 -28.7,-48.42 -56.78,-96.888 -84.74,-145.361 -4.23,-28.359 -9.56,-55.578 -0.3,-85.16 9.2,-14.348 22.9,-6.731 34.96,-0.969 6.46,3.871 10.85,7.039 17.41,14.059 20.66,25.179 27.58,51.781 34.47,77.472 z M 1743.45,1312 c -7.76,6.73 -22.02,-4.3 -23.63,-14.73 -4.29,-13.93 -3.88,-27.96 -2.97,-41.95 10.96,18.35 25.51,36.48 27.42,55.24 -0.11,0.33 -0.27,0.78 -0.82,1.44"
       style="fill:#000000;fill-opacity:1;fill-rule:evenodd;stroke:none"
       transform="matrix(0.13333333,0,0,-0.13333333,0,344)"
       clip-path="url(#clipPath40)" />
    <path
       id="path41"
       d="m 2304.96,893.48 c -9.41,-29.39 -23.32,-57.3 -42.5,-83.98 -39.26,-53.309 -95.73,-103.121 -145.71,-127.23 -25.46,-11.961 -50.29,-17.032 -65.35,-18.61 -15.05,-1.578 -20.32,0.32 -25.75,2.621 -5.42,2.301 -11,4.989 -17.88,11.547 -6.88,6.57 -15.07,17.012 -19.86,29.883 -8.51,24.5 -7.24,52.027 -3.28,74.008 1.82,10.59 4.23,21.84 7.21,32.922 l 93.01,303.169 c 1.7,7.48 2.59,10.77 2.48,16.62 -0.1,3.49 -0.65,8.17 -2.79,11.34 -3.91,6.72 -18.27,6.29 -30.11,-4.98 -5.99,-5.95 -9.84,-15.33 -12.67,-24.62 l -138.18,-453.1 h -141.92 l 306.1,1003.57 h 141.9 l -135.78,-441.72 c 11.49,9.42 24.24,17.37 36.53,23.45 12.3,6.08 24.13,10.29 40.34,7.98 16.21,-2.32 36.8,-11.16 48.16,-30.96 11.37,-19.81 13.52,-50.58 13.45,-75.6 -0.06,-25.03 -2.35,-44.31 -5.9,-64.23 -3.55,-19.92 -8.36,-40.48 -14.47,-60.65 l -53,-174.73 c -3.27,-10.27 -5.51,-17.469 -5.44,-25.711 0.07,-4.571 0.88,-10.078 3.59,-14.11 2.71,-4.027 7.33,-6.57 17.55,-4.078 10.21,2.5 26.03,10.02 42.89,24.078 16.85,14.063 34.75,34.653 49.09,55.352 14.34,20.711 25.12,41.539 33.01,63.43 l 25.32,-54.121 -0.04,-1.54"
       style="fill:#000000;fill-opacity:1;fill-rule:evenodd;stroke:none"
       transform="matrix(0.13333333,0,0,-0.13333333,0,344)"
       clip-path="url(#clipPath42)" />
    <path
       id="path43"
       d="m 2532.8,893.531 -25.32,54.117 c -14.37,-37.289 -37.21,-75.757 -76.04,-113.16 -12.25,-11.297 -25.09,-20.308 -40.33,-26.617 -9.26,-3.211 -20.06,-8.18 -26.56,1.207 -3.01,5.801 -2.67,7.352 -3.19,13.371 0.07,10.391 1.93,15.68 4.71,26.071 l 92.23,310.95 -106.53,94.83 c -45.11,-151.22 -91.11,-302.558 -135.34,-453.659 -1.43,-6.68 -1.79,-8.461 -2.69,-14.121 -2.47,-12.141 -2.53,-35.77 -0.43,-49.942 3.67,-20.707 4.6,-41.019 29.5,-65.488 20.25,-14.57 36.27,-9.789 55.17,-6.578 16.36,3.187 49.8,16.027 74.38,32.726 29.05,18.981 56.06,41.563 85.06,71.871 39.2,41 61.75,82.84 75.38,124.422"
       style="fill:#000000;fill-opacity:1;fill-rule:evenodd;stroke:none"
       transform="matrix(0.13333333,0,0,-0.13333333,0,344)"
       clip-path="url(#clipPath44)" />
    <path
       id="path45"
       d="m 2541.43,1402.69 c 16.96,31.27 24.58,59.48 8.61,91 -21.09,28.45 -52.91,28.53 -77.52,18.74 -18.26,-6.76 -39.97,-23.09 -57.11,-44.39 -18.26,-28.18 -29.01,-59.14 -18.84,-88.53 7.78,-23.64 33.62,-34.41 52.64,-34.46 7.35,-0.13 14.54,0.93 21.89,2.93 5.16,1.3 13.67,4.41 22.56,9.09 19.91,10.82 37.49,27.34 47.77,45.62"
       style="fill:#000000;fill-opacity:1;fill-rule:evenodd;stroke:none"
       transform="matrix(0.13333333,0,0,-0.13333333,0,344)"
       clip-path="url(#clipPath46)" />
    <path
       id="path47"
       d="m 2908.95,893.48 c -9.09,-29.429 -22.84,-57.378 -42.06,-84.039 -39.31,-53.05 -96.14,-102.921 -146.15,-127.171 -25.45,-11.961 -50.29,-16.981 -65.12,-18.59 -14.82,-1.598 -19.63,0.211 -24.58,2.64 -4.95,2.442 -10.03,5.489 -14.68,9.102 -10.56,7.687 -18.97,18.277 -23.98,31.367 -8.89,24.75 -8.03,52.633 -3.39,74.699 2.08,10.594 4.89,21.801 8.26,32.832 l 92.63,303.47 c 1.63,7.52 2.57,10.77 2.41,16.64 -0.13,3.52 -0.75,8.24 -3.07,11.41 -4.32,6.55 -18.48,6.36 -30.11,-5.12 -5.8,-5.95 -9.56,-15.3 -12.38,-24.55 l -138.11,-453.1 h -142.97 l 184.3,604.62 88.67,-75.77 c 11.95,19.9 28.97,36.89 48.7,48.55 19.73,11.66 42.16,18 63.53,16.39 21.38,-1.62 41.69,-11.19 52.98,-31.32 11.28,-20.12 13.53,-50.81 13.5,-75.79 -0.03,-24.99 -2.34,-44.27 -5.9,-64.19 -3.56,-19.92 -8.25,-40.52 -14.47,-60.65 L 2743,850.18 c -2.65,-10.289 -4.54,-17.469 -4.47,-25.7 0.06,-4.55 0.77,-10.019 3.29,-14.05 2.53,-4.032 6.87,-6.61 17.09,-4.16 10.21,2.449 26.3,9.921 43.19,24 16.89,14.07 34.58,34.761 48.92,55.5 14.34,20.742 25.35,41.531 33.63,63.371 l 25.32,-54.121 -1.02,-1.54"
       style="fill:#000000;fill-opacity:1;fill-rule:evenodd;stroke:none"
       transform="matrix(0.13333333,0,0,-0.13333333,0,344)"
       clip-path="url(#clipPath48)" />
    <path
       id="path49"
       d="m 3019.14,990.891 39.18,128.059 c 1.01,7.3 1.37,6.19 1.1,11.39 -0.23,3.29 -0.96,8.57 -3.73,12.04 -5.02,6.44 -19.22,7.47 -30.6,-3.93 -5.24,-5.5 -9.25,-13.92 -10.66,-22.57 L 2974.95,990.891 Z M 3230.1,893.48 c -9.32,-30.261 -23.49,-58.992 -43.23,-86.179 -19.73,-27.199 -45.03,-52.879 -70.37,-74.52 -49.62,-41.89 -96.61,-68.949 -141.95,-69.711 h -74.64 c -28.75,0 -59.71,6.149 -78.24,26.649 -18.54,20.492 -24.42,51.66 -25.29,78.402 -0.88,26.75 3.25,49.07 8.97,74.449 13.33,60.422 36.59,128.719 55.67,193.17 7.98,26.21 17.73,51.91 28.87,75.3 11.14,23.39 23.52,44.52 37.61,63.27 14.09,18.74 29.9,35.1 46.67,45.91 16.76,10.8 34.46,16.54 52.39,16.54 h 97.23 c 17.48,0 35.98,-5.29 47.04,-19.34 11.07,-14.04 14.61,-35.17 14.12,-56.66 -0.49,-21.5 -5.01,-43.35 -11.56,-71.66 -6.55,-28.32 -15.13,-63.08 -25.2,-92.53 -10.06,-29.441 -21.62,-53.57 -38.73,-69.488 -17.12,-15.91 -39.77,-22.781 -62.09,-22.781 h -98.44 l -24.94,-81.91 c -4.33,-14.34 -7.35,-29.231 -7.75,-43.059 -0.18,-6.461 0.21,-12.66 2.14,-16.852 1.94,-4.191 5.42,-6.628 9.12,-6.628 h 28.48 c 32.19,0 64.28,7.457 94.94,22.937 30.66,15.481 59.9,39.121 81.52,60.051 42.76,42.121 59.51,74.191 73.36,110.301 l 24.33,-54.121 -0.03,-1.54"
       style="fill:#000000;fill-opacity:1;fill-rule:evenodd;stroke:none"
       transform="matrix(0.13333333,0,0,-0.13333333,0,344)"
       clip-path="url(#clipPath50)" />
    <path
       id="path51"
       d="m 3774.18,893.48 c -9.34,-30.281 -23.52,-59.031 -43.26,-86.23 -19.73,-27.199 -45.02,-52.852 -70.35,-74.48 -49.6,-41.872 -96.6,-68.938 -141.94,-69.7 h -74.64 c -31.99,0 -66.45,6.84 -86.94,29.66 -20.49,22.821 -26.75,57.5 -27.98,85.352 -1.23,27.848 2.56,48.867 7.59,72.18 5.03,23.32 11.19,48.957 18.85,74.136 l 155.72,511.842 c 19.08,62.72 43.3,123.77 74.91,161.39 31.6,37.63 71.07,64.37 114.73,64.37 h 121.78 c 17.32,0 35.71,-5.14 46.18,-19.19 10.46,-14.06 12.92,-35.27 13.72,-49.18 0.79,-13.9 -0.08,-20.5 -0.93,-27.48 -0.85,-6.98 -1.68,-14.34 -2.65,-21.67 l -148.19,-83.5 c 8.75,28.87 17.75,57.79 26.24,86.61 0.28,1.05 0.62,2.11 -0.05,5.63 -0.67,3.52 -2.34,9.5 -7.1,13.08 -4.77,3.58 -12.64,4.76 -21.3,4.44 -8.67,-0.32 -18.13,-2.14 -25.44,-6.95 -7.3,-4.8 -11.91,-12.74 -14.45,-21.05 L 3468.39,822.18 c -4.25,-16.418 -9.34,-31 -9.02,-43.871 0.43,-6.207 2.69,-12.899 8.14,-17.258 5.45,-4.371 14.09,-6.391 35.77,-4.492 21.68,1.89 56.39,7.711 89.42,22.101 33.02,14.391 64.35,37.352 90.03,65.328 15.14,17.16 30.28,34.321 41.48,51.844 11.19,17.527 18.43,35.418 25.67,53.309 l 25.31,-54.121 -1.01,-1.54"
       style="fill:#000000;fill-opacity:1;fill-rule:evenodd;stroke:none"
       transform="matrix(0.13333333,0,0,-0.13333333,0,344)"
       clip-path="url(#clipPath52)" />
    <path
       id="path53"
       d="m 3924.27,1066.71 c -6.18,3.94 -10.88,9.95 -13.45,19.05 -2.57,9.1 -2.99,21.3 -3.01,29.72 0.04,15.03 1.14,20.07 3.52,28.5 -12.65,-11.61 -19.79,-25.06 -24.06,-39.77 l -94.04,-309.429 c -2.76,-10.5 -4.11,-18.082 -4.15,-27.441 0,-5.289 0.49,-11.559 2.79,-16 4.59,-10.211 20.47,-8.149 33.72,7.98 7.07,8.731 12.14,22.02 16.14,35.192 z m 90.79,82.34 c 1.14,6.99 1.79,14.1 1.95,21.52 0.16,7.42 -0.17,15.16 -2.22,20.56 -2.06,5.4 -5.84,8.46 -10.87,8.58 -5.03,0.11 -11.3,-2.73 -15.08,-8.38 -6.61,-10.56 -6.54,-28.52 -2.68,-42.05 1.77,-6.21 4.34,-11.99 7.64,-15.75 3.29,-3.77 7.3,-5.51 9.78,-6.21 4.28,-1.12 4.71,0.35 6.6,1.2 2.12,6.7 3.75,13.55 4.88,20.53 z m 171.45,-40.64 c -18.96,-23.81 -37.93,-47.63 -62.83,-63.36 -24.9,-15.72 -55.74,-23.34 -86.57,-30.96 -3.67,-11.69 -7.27,-23.399 -11.31,-37.641 -4.04,-14.25 -8.51,-31.039 -22.97,-74.34 C 3988.37,858.809 3963.91,789 3934.65,742.461 3905.4,695.922 3872.52,663.07 3832.9,663.07 h -110.97 c -16.81,0 -34.07,7.11 -43.95,22.719 -9.88,15.609 -12.36,38.93 -12.13,60.941 0.79,45.02 12.02,91.09 26.68,140.559 l 42.31,136.081 c 8.25,26.53 17.98,52.63 29.51,76.74 11.53,24.11 24.54,46.31 39.2,66.65 14.66,20.34 30.97,38.81 48.02,51.01 17.05,12.19 34.82,18.99 53,18.99 h 40.25 c 9.26,13.24 21.56,24.45 35.04,32.15 13.49,7.71 28.16,11.9 44.11,11.06 15.95,-0.85 33.18,-6.73 43.06,-20.42 9.88,-13.7 12.42,-35.22 12.57,-52.85 0.03,-34.38 -8.3,-60 -19.6,-90.55 4.98,-1.71 10.05,-3.19 14.66,-4.51 4.61,-1.32 8.76,-2.49 15.9,-1.26 14.12,1.69 42.82,17.88 67.49,42.88 l 28.46,-44.85"
       style="fill:#000000;fill-opacity:1;fill-rule:evenodd;stroke:none"
       transform="matrix(0.13333333,0,0,-0.13333333,0,344)"
       clip-path="url(#clipPath54)" />
    <path
       id="path55"
       d="m 4329.64,688.352 c -26.96,-16.813 -58.15,-24.11 -87.13,-25.372 -10.65,0.61 -19.12,2.129 -27.39,12.75 -4.34,5.782 -6.62,12.211 -7.84,16.54 -1.24,4.472 -2.39,11.332 -2.12,17.191 -4.47,-5.82 -5.06,-6.711 -9.56,-11.492 -8.38,-9.078 -21.37,-19.688 -33.11,-25.699 -13.56,-7.579 -32.49,-10.188 -47.22,-8.911 -14.52,1.082 -37.58,4.411 -57.68,18.18 -3.6,2.621 -6.51,5 -9.13,7.621 -4.87,4.602 -12.8,16.57 -15.91,25.41 -16.86,45.418 -8.67,98.891 3.66,148.391 26.74,96.039 48.22,192.079 114.83,288.509 19.65,28.45 53.3,64.01 82.44,75.13 4.48,1.93 8.72,3.6 12.29,4.76 7.37,2.8 30.14,7 41.46,4.89 11.26,-1.42 23.62,-4.96 37.44,-16.57 9.53,-7.76 20.22,-22.22 24.83,-34.09 l 9.44,31.07 h 90.23 c -38.03,-125.75 -76.93,-251.762 -114.02,-377.301 -1.89,-13.328 -5.32,-21.23 5.07,-32.449 7.18,-3.91 17,0.149 23.6,2.699 9.38,4.52 21.05,8.262 31.31,21.922 96.4,100.77 155.89,201.499 210.34,303.169 -7.41,65.56 8.46,131.31 38.36,197.75 8.39,16.97 19.34,35.74 38.99,49.02 11.54,7.8 24.22,12.36 37.14,13.23 12.33,0.38 26.04,-1.05 37.05,-15.67 6.73,-10.82 7.99,-18.41 9.13,-30.88 0.58,-10.05 -0.73,-18.58 -2.16,-25.32 -10.31,-49.79 -37.53,-99.78 -62.39,-149.47 31.82,-65.42 60.26,-130.75 65.66,-197.161 2.9,-42.051 -9.63,-94.48 -38.28,-142.687 -13.53,-23.102 -30.55,-46.492 -53.16,-69.93 31.3,1.52 62.45,17.918 93.81,45.617 4.58,3.981 9.08,8.063 15.82,14.852 6.73,6.801 15.7,16.308 24.06,26.347 27.88,33.672 46.9,69.922 60.14,106.481 l 23.08,-66.5 c -19.6,-45.981 -46.06,-92.348 -96.57,-139.731 -6.59,-6.109 -13.17,-11.789 -19.92,-17.269 -6.75,-5.481 -13.66,-10.758 -22.42,-16.719 -18.61,-12.738 -42.17,-25.859 -64.21,-34.41 -11.61,-4.59 -23.5,-8.441 -32.07,-10.941 -16.81,-4.797 -23.69,-5.559 -35.11,-7.039 -16.91,-2.02 -39.13,-1.442 -58.23,2.242 -13.17,2.578 -20.09,4.457 -32.2,9.179 -22.36,9.481 -35.19,19.438 -45.79,39.52 -8.06,16.16 -11.09,31.539 -13.41,48.73 -1.92,16.368 -4.13,32.75 -5.07,49.129 -19.17,-26.148 -42.8,-57.109 -75.35,-81.281 -20.72,-16 -41.75,-29.648 -62.73,-43.437 z m 301.48,230.898 c 4.3,29.09 5.6,61.16 1.99,85.88 -1.24,8.56 -3.88,20.39 -8.23,30.61 -28.7,-48.431 -56.78,-96.888 -84.74,-145.361 -4.23,-28.34 -9.62,-55.578 -0.22,-85.289 6.97,-11.621 16.79,-7.531 24.02,-5.719 8.84,3.211 17.49,7.25 28.85,19.578 7.79,9.281 9.78,13.371 14.5,22.141 12.62,25.851 19.8,51.09 23.83,78.16 z m 74.78,393.28 c -6.54,4.82 -19.4,-2.44 -21.75,-11.58 -4.48,-11.44 -5.17,-21.94 -4.82,-35.84 0.13,-3.27 0.29,-6.53 0.51,-9.79 10.35,16.47 20.79,31.85 27.21,49.94 0.63,3.15 1.18,4.9 -1.15,7.27 z m -421.24,-192.04 c 2.25,6.66 1.95,10.02 -0.19,17.62 -10.08,19.74 -39.28,3.98 -43.57,-15.39 C 4210.61,1021 4178.62,918.859 4148.1,817 c -3.2,-17.84 -9.05,-32.711 -2.29,-53.668 12.64,-13.281 27.63,8.148 33.99,21.25 4.76,10.129 7.94,20.406 11.11,30.656 l 93.75,305.252"
       style="fill:#000000;fill-opacity:1;fill-rule:evenodd;stroke:none"
       transform="matrix(0.13333333,0,0,-0.13333333,0,344)"
       clip-path="url(#clipPath56)" />
    <path
       id="path57"
       d="m 5071.78,949.141 c -6.08,-17.371 -13.84,-34.192 -24.22,-51.45 -16.47,-26.832 -36.15,-52.011 -62.15,-73.23 -9.75,-7.949 -23.57,-16.102 -34.54,-20.449 -10.38,-3.063 -21.39,-10.692 -25.95,1.039 -1.32,4.449 -0.34,7.281 2.22,11.449 l 98.08,329.61 103.17,-0.58 23.29,75.77 -103.16,0.6 133.44,444.74 h -141.62 l -133.77,-445.78 -71.71,0.44 -23.28,-75.77 72.76,-0.51 c -34.67,-114.75 -68.67,-229.821 -104,-344.258 -3.02,-10.524 -5.49,-21.274 -6.69,-32.16 -1.87,-31.153 -1.07,-51.27 13.84,-78.84 4.31,-8.203 17.13,-20.071 24.67,-22.453 17.61,-6.918 34.13,-4.329 51.07,-0.989 16.41,3.09 49.72,15.559 74.26,32.289 28.94,18.93 55.83,41.422 84.79,71.5 5.79,6.129 11.36,12.411 16.8,18.821 5.44,6.398 10.74,12.941 17.62,22.922 6.88,9.968 15.32,23.378 22.52,37.5 7.2,14.109 13.15,28.918 17.84,44.128 l -25.28,55.661"
       style="fill:#000000;fill-opacity:1;fill-rule:evenodd;stroke:none"
       transform="matrix(0.13333333,0,0,-0.13333333,0,344)"
       clip-path="url(#clipPath58)" />
    <path
       id="path59"
       d="m 3202.76,1908.92 c 8.78,5.59 18.12,6.39 28,-2.46 l 16.92,-17.28 c 95.7,78.28 191.63,157.29 287.1,234.84 7.63,4.23 15.61,4.53 23.95,-1.18 l 202.37,-150.07 c 20.56,11.77 41.31,24.21 61.67,35.31 7.15,2.45 14.54,2.38 22.41,-4.36 l 199.71,-185.78 c 37.43,20.75 75.03,42.12 112.27,62.26 6.94,2.33 14.09,2.18 21.68,-3.95 142.44,-123.9 284.54,-246.9 427.31,-371.71 7.32,-9.95 8.39,-21.82 -4.89,-32.13 -7.07,-4.27 -14.56,-4.69 -22.28,-0.58 l -424.94,241.04 c -41.83,-20.35 -83.81,-41.25 -125.48,-61.04 -6.8,-1.89 -13.79,-1.6 -21.21,4.83 l -181.01,169.09 c -28.07,-37.15 -55.36,-74 -84.22,-111.46 -10.5,-8.56 -22.81,-10.4 -33.96,4.98 l -80.89,145.58 c -29.86,-5.44 -59.75,-11.35 -89.57,-16.32 -6.55,-0.45 -17.03,3.72 -20.82,13.96 -1.2,3.19 -1.62,6.52 -1.28,9.85 l 4.64,45.05 -143.4,-81.99 c 20.25,-16.6 40.18,-32.36 60.75,-49.8 8.74,-10.38 8.02,-25.39 -6.27,-33.74 -3.09,-1.56 -6.31,-2.29 -9.54,-2.33 l -235.26,-2.43 c -121.39,-53.88 -242.92,-108.32 -364.16,-161.64 -7.86,-2.43 -20.1,0.82 -25.16,11.61 -3.68,8.44 -3.35,18.63 6.96,26.81 l 398.6,285.04"
       style="fill:#cdb058;fill-opacity:1;fill-rule:evenodd;stroke:none"
       transform="matrix(0.13333333,0,0,-0.13333333,0,344)"
       clip-path="url(#clipPath60)" />
    <path
       id="path61"
       d="m 2295.28,1905.34 c 8.69,7.97 18.17,8.72 28,2.46 133.71,-95.73 267.13,-190.68 401.15,-287.19 9,-10.57 10.82,-23.03 -4.58,-34.27 -6.16,-3.33 -12.69,-3.71 -19.32,-0.89 l -361.01,160.53 c -79.52,0.9 -158.99,1.36 -238.55,2.71 -8.78,-0.29 -22.06,15.54 -17.28,27.19 1.07,3.53 2.74,7.15 7.15,10.87 l 58.35,47.53 -143.4,81.98 c 1.58,-16.12 3.61,-32.25 4.73,-48.38 0.96,-9.24 -12.47,-22.16 -22.18,-20.47 -29.92,4.98 -59.72,10.87 -89.58,16.31 -27.57,-49.44 -54.48,-98.63 -82.71,-148.33 -10.54,-10.97 -21.98,-12.59 -34.31,0.25 l -82.05,108.99 c -61.18,-57.05 -122.63,-114.93 -183.54,-171.13 -6.9,-4.49 -14.2,-5.04 -21.69,-1.59 l -122.47,59.84 c -142.65,-80.82 -285.49,-162.27 -427.959,-242.46 -8.672,-3.16 -21.25,-1.71 -27.672,12.13 -2.699,7.73 -2.898,15.81 5.86,24.38 142.541,123.77 285.341,248.35 427.621,371.3 7,4.18 14.4,4.59 22.03,0.59 l 109.27,-60.87 c 67.47,62.63 135.23,126.2 202.4,187.9 7.22,4.57 14.9,5.05 22.83,0.76 l 58.56,-33.84 c 68.35,50.59 136.92,101.86 205.05,151.77 7.61,3.74 15.56,3.94 23.87,-2.34 l 284.51,-233.01 16.92,17.28"
       style="fill:#cdb058;fill-opacity:1;fill-rule:evenodd;stroke:none"
       transform="matrix(0.13333333,0,0,-0.13333333,0,344)"
       clip-path="url(#clipPath62)" />
    <path
       id="path63"
       d="m 2816.73,1606.31 398.59,285.04 30.75,-31.4 299.8,245.54 213.76,-158.52 70.84,40.93 211.21,-196.47 123,68.52 424.96,-369.33 -434.85,246.66 -132.69,-64.84 -198.57,185.49 -96.49,-128.17 -88.43,159.15 -101.52,-18.79 8.95,86.9 -207.24,-118.49 82.75,-67.4 -239.72,-2.47 -365.1,-162.35"
       style="fill:#000000;fill-opacity:1;fill-rule:evenodd;stroke:none"
       transform="matrix(0.13333333,0,0,-0.13333333,0,344)"
       clip-path="url(#clipPath64)" />
    <path
       id="path65"
       d="m 2709.31,1605.19 -398.6,285.04 -30.75,-31.41 -299.79,245.54 -213.76,-158.51 -70.85,40.93 -211.21,-196.48 -122.99,68.52 -424.969,-369.32 434.849,246.65 132.7,-64.83 198.56,185.49 96.49,-128.17 88.43,159.15 101.53,-18.79 -8.96,86.9 207.24,-118.49 -82.75,-67.41 239.73,-2.47 365.1,-162.34"
       style="fill:#000000;fill-opacity:1;fill-rule:evenodd;stroke:none"
       transform="matrix(0.13333333,0,0,-0.13333333,0,344)"
       clip-path="url(#clipPath66)" />
    <path
       id="path67"
       d="m 2742.09,1689 -427.78,625.3 218.88,59.64 208.9,-684.94"
       style="fill:#cdb058;fill-opacity:1;fill-rule:evenodd;stroke:none"
       transform="matrix(0.13333333,0,0,-0.13333333,0,344)"
       clip-path="url(#clipPath68)" />
    <path
       id="path69"
       d="m 2777.24,1693.41 427.78,625.31 -218.89,59.64 -208.89,-684.95"
       style="fill:#cdb058;fill-opacity:1;fill-rule:evenodd;stroke:none"
       transform="matrix(0.13333333,0,0,-0.13333333,0,344)"
       clip-path="url(#clipPath70)" />
    <path
       id="path71"
       d="m 2759.09,1695.93 -106.99,690.31 214.9,-0.41 -107.91,-689.9"
       style="fill:#cdb058;fill-opacity:1;fill-rule:evenodd;stroke:none"
       transform="matrix(0.13333333,0,0,-0.13333333,0,344)"
       clip-path="url(#clipPath72)" />
    <path
       id="path73"
       d="m 2720.95,1676.27 -647.19,485.52 161.47,114.53 485.72,-600.05"
       style="fill:#cdb058;fill-opacity:1;fill-rule:evenodd;stroke:none"
       transform="matrix(0.13333333,0,0,-0.13333333,0,344)"
       clip-path="url(#clipPath74)" />
    <path
       id="path75"
       d="m 2798.38,1680.68 647.19,485.52 -161.47,114.53 -485.72,-600.05"
       style="fill:#cdb058;fill-opacity:1;fill-rule:evenodd;stroke:none"
       transform="matrix(0.13333333,0,0,-0.13333333,0,344)"
       clip-path="url(#clipPath76)" />
  </g>
</svg>
